Coordinates
version=1
nRows=13
nColumns=36
inDegrees=yes

Units are S.I. units (second, meters, Newtons, ...)
If the header above contains a line with 'inDegrees', this indicates whether rotational values are in degrees (yes) or radians (no).

endheader
time	pelvis_tilt	pelvis_list	pelvis_rotation	pelvis_tx	pelvis_ty	pelvis_tz	hip_flexion_r	hip_adduction_r	hip_rotation_r	knee_angle_r	knee_angle_r_beta	ankle_angle_r	subtalar_angle_r	mtp_angle_r	hip_flexion_l	hip_adduction_l	hip_rotation_l	knee_angle_l	knee_angle_l_beta	ankle_angle_l	subtalar_angle_l	mtp_angle_l	lumbar_extension	lumbar_bending	lumbar_rotation	arm_flex_r	arm_add_r	arm_rot_r	elbow_flex_r	pro_sup_r	arm_flex_l	arm_add_l	arm_rot_l	elbow_flex_l	pro_sup_l
     29.86666670	     -0.44180598	      4.57495071	      2.26998885	      1.05419912	      0.89831743	      0.74311417	     -3.76604736	     -4.76293315	      5.79425696	     51.25354220	      0.89454306	    -11.54687141	     -7.44443393	     -7.49999987	     21.29256353	      7.53520916	      6.01749874	     25.37603987	      0.44289545	      2.27965480	     -9.59682644	     -7.49999987	    -13.65166753	     -5.59594944	      9.66767685	      5.56354783	    -14.93662591	      9.21770549	     24.96154215	     74.44138841	      3.51722969	    -13.15043941	     -0.89134434	     15.02143421	     78.82359628
     29.88333330	     -0.60479111	      4.47292643	      1.62382862	      1.05718441	      0.89969603	      0.74307093	     -0.01741845	     -4.78722704	      5.81511148	     56.97634672	      0.99442485	    -11.79348323	     -8.57686517	     -7.49999987	     20.51566065	      7.38825359	      5.65615653	     26.26683712	      0.45844279	      4.00218871	    -10.08452123	     -7.49999987	    -13.75554698	     -5.69057591	      9.17363254	      5.49236687	    -14.77020048	      8.00305689	     25.72032334	     81.14104395	      3.63244291	    -13.15932503	     -1.30041409	     16.37141267	     82.73188651
     29.90000000	     -0.48820627	      4.32776207	      0.97228241	      1.06059073	      0.90227562	      0.74423246	      3.01076449	     -4.68900587	      5.75604141	     61.24509413	      1.06892854	    -11.56354713	     -9.54520434	     -7.49999987	     19.15728692	      7.14408557	      5.49880798	     26.64250772	      0.46499948	      5.46081653	    -10.67750382	     -7.49999987	    -13.99398372	     -5.69831039	      8.47837686	      5.57168704	    -14.67296091	      8.88775828	     26.08452810	     80.81547890	      3.89024110	    -13.24836726	     -0.18648720	     17.02868695	     82.23451947
     29.91666670	     -0.23019681	      4.10602599	      0.32656446	      1.06169992	      0.90353012	      0.74467555	      5.56791888	     -4.49182065	      5.66735973	     64.21716049	      1.12080089	    -11.03971450	    -10.42587983	     -7.49999987	     17.32916202	      6.78109058	      5.35155250	     26.44156449	      0.46149236	      6.77799736	    -10.93547435	     -7.49999987	    -14.29715381	     -5.63779724	      7.76537038	      5.47020725	    -14.47223315	      9.04052216	     26.36419218	     80.21970582	      4.27501320	    -13.18564774	      0.14446956	     17.71574864	     81.44933530
     29.93333330	     -0.17320031	      3.65702346	     -0.16214989	      1.05894131	      0.90530769	      0.74321381	      8.26186983	     -4.08684775	      5.54125249	     66.05453104	      1.15286905	     -9.92535302	    -11.56661775	     -7.49999987	     15.46746237	      6.24854673	      5.37307618	     25.72828383	      0.44904326	      7.82358173	    -10.97248787	     -7.49999987	    -14.31475701	     -5.24957862	      6.94435837	      5.35005007	    -14.44657310	      9.72704170	     26.29492522	     80.95043586	      4.88071736	    -13.13068049	      1.51005991	     18.37084314	     81.92155384
     29.95000000	      0.03562446	      2.99117866	     -0.66002360	      1.05391954	      0.90902654	      0.74154202	     10.82856033	     -3.49657676	      5.56814853	     66.79543856	      1.16580033	     -7.83421710	    -13.12832277	     -7.49999987	     13.28720045	      5.50424648	      5.25098755	     24.57665938	      0.42894363	      8.52478979	    -10.86704241	     -7.49999987	    -14.68821785	     -4.58120084	      6.22599499	      5.03737658	    -14.51660401	      9.65566133	     26.73925479	     79.56307248	      5.61840374	    -12.86479552	      1.77522180	     19.67705788	     80.43099491
     29.96666670	      0.03409059	      2.17494525	     -1.04674823	      1.04948262	      0.91309381	      0.74098328	     13.51897323	     -2.81455345	      5.51876243	     66.22109116	      1.15577608	     -4.77884938	    -14.53849869	     -7.49999987	     11.32803108	      4.58293328	      5.03964617	     23.27057857	      0.40614821	      9.16633634	    -10.15869626	     -7.49999987	    -14.76969592	     -3.67752061	      5.36967435	      4.89424811	    -14.66710230	     10.15959461	     26.78046623	     80.23969580	      6.52343061	    -12.89573179	      3.79077737	     20.58888123	     80.96697265
     29.98333330	     -0.32087035	      1.45040098	     -1.44641188	      1.04707372	      0.91641633	      0.74108709	     16.34011623	     -2.18248993	      5.57677780	     64.44180704	      1.12472171	     -2.25165933	    -16.17278919	     -7.49999987	      9.79130660	      3.79969069	      5.06875030	     21.94992081	      0.38309839	      9.33139143	    -10.23438367	     -7.49999987	    -14.49759597	     -2.87391153	      4.64112987	      4.59631572	    -14.77123538	     10.11558414	     27.21787471	     80.00035238	      7.53397850	    -12.66292721	      3.85777848	     21.65391204	     80.71872832
     30.00000000	      0.11582124	      0.54091767	     -1.81449499	      1.04622906	      0.92226782	      0.74109928	     17.65069732	     -1.40136366	      5.42657133	     61.10415485	      1.06646869	     -0.47847941	    -16.81560373	     -7.49999987	      7.25382411	      2.78700155	      4.90403699	     20.40998811	      0.35622149	      9.52507821	     -9.80968030	     -7.49999987	    -15.24375279	     -1.83469272	      4.33989766	      4.27793417	    -15.08971064	      9.68869266	     27.52268139	     81.44202078	      8.67969462	    -12.65970967	      5.60662705	     23.57678726	     81.90978402
     30.01666670	      0.26179058	     -0.12003119	     -2.13454117	      1.04529377	      0.92938927	      0.74143563	     18.78642882	     -0.83946408	      5.23114602	     56.74597420	      0.99040409	      0.34674934	    -17.23408380	     -7.49999987	      4.89063188	      2.08067963	      4.89534376	     18.69797241	      0.32634118	      9.42496689	    -10.01676283	     -7.49999987	    -15.58857698	     -1.11988031	      3.80967091	      3.98839503	    -15.15441963	      9.23407416	     27.63309560	     80.09516821	      9.60598209	    -12.45070849	      5.40994504	     25.11302025	     80.48145998
     30.03333330	      0.40507147	     -0.65520216	     -2.34832793	      1.04319897	      0.93396220	      0.74209241	     19.56341138	     -0.48956730	      4.72913001	     51.70422752	      0.90240901	      1.14791658	    -16.57527277	     -7.49999987	      2.47693109	      1.44761037	      4.52367122	     16.93219546	      0.29552256	      9.82995081	     -9.21030967	     -7.49999987	    -15.91042813	     -0.54624372	      3.18057944	      3.95327782	    -15.15064682	      8.86089474	     26.96406153	     80.94428843	     10.48201156	    -12.47815580	      5.97377683	     26.40894061	     81.30688606
     30.05000000	      0.60019420	     -1.08450926	     -2.55472849	      1.04004992	      0.93399552	      0.74267537	     20.20734145	     -0.22968140	      4.22047558	     46.38650053	      0.80959716	      1.30581361	    -16.10024358	     -7.49999987	      0.16560700	      0.98694342	      4.52465696	     15.38772448	      0.26856646	      9.98730207	     -9.26963910	     -7.49999987	    -16.47583682	     -0.14541184	      2.62600912	      3.77045208	    -15.23035549	      8.49252478	     26.87325565	     79.68414094	     11.37288993	    -12.43192367	      6.10615175	     27.99748767	     80.06372487
     30.06666670	      0.68653112	     -1.31503351	     -2.75268317	      1.03734812	      0.93140825	      0.74287197	     21.05677166	     -0.21107720	      3.69402896	     41.17805575	      0.71869265	      1.80103733	    -14.81196777	     -7.49999987	     -1.70958317	      0.70598783	      4.50698397	     14.27359570	      0.24912124	     10.49963953	     -8.91069560	     -7.49999987	    -16.85110947	      0.03358317	      1.94520991	      4.03635395	    -15.12070254	      8.17741194	     25.83556384	     80.13173903	     12.41571400	    -12.64243267	      7.46484190	     29.25696554	     80.60412871
